# xmcd
#
# Track frame offsets:
# 150
# 13692
# 33420
# 51218
# 68462
# 90027
# 111242
# 140505
# 160395
# 179606
# 196204
# 212986
# 227025
# 249189
#
# Disc length: 3481 seconds
#
#
# Revision: 0
# Processed by: cddbd v1.5.2PL0 Copyright (c) Steve Scherf et al.
# Submitted via: FreeRIP 2.60 
#
DISCID=b70d970e
DTITLE=Ramblin Wayn - Destination road
DYEAR=2005
DGENRE=Country
TTITLE0=Destination road
TTITLE1=Like the angels loves L.A
TTITLE2=Mary took a train to memphis
TTITLE3=Back to whiskey river
TTITLE4=Dark naked room
TTITLE5=I'm a blues brother, baby
TTITLE6=Chains of hurt
TTITLE7=Would you pray to our mother for me
TTITLE8=Warm rio rain
TTITLE9=River
TTITLE10=Crazy affair
TTITLE11=I can hear that lonesome whistle blow
TTITLE12=My baby left me blue for mississppi
TTITLE13=Like gipsy boys
EXTD=
EXTT0=
EXTT1=
EXTT2=
EXTT3=
EXTT4=
EXTT5=
EXTT6=
EXTT7=
EXTT8=
EXTT9=
EXTT10=
EXTT11=
EXTT12=
EXTT13=
PLAYORDER=
